<svg width="18" height="18" viewBox="0 0 18 18" fill="none" xmlns="http://www.w3.org/2000/svg">
	<path d="M9.13817 1.99048C8.8553 1.99048 8.62598 2.21334 8.62598 2.48822C8.62598 2.76311 8.8553 2.98597 9.13817 2.98597C10.833 2.98597 12.2119 4.3257 12.2119 5.97244C12.2119 6.24732 12.4412 6.47018 12.7241 6.47018C13.0069 6.47018 13.2363 6.24732 13.2363 5.97244C13.2363 3.77678 11.3979 1.99048 9.13817 1.99048Z" fill="#BD93F9"/>
	<path d="M7.81844 0.133335C5.50433 0.603239 3.62798 2.40919 3.13426 4.67197C2.71737 6.58271 3.2311 8.50102 4.54372 9.93503C5.18537 10.6359 5.55333 11.5612 5.55333 12.4761V13.4716C5.55333 14.1339 5.99952 14.6966 6.61505 14.8915C6.81747 16.0537 7.85552 16.9889 9.13871 16.9889C10.4216 16.9889 11.4599 16.054 11.6624 14.8915C12.2779 14.6966 12.7241 14.1339 12.7241 13.4715V12.476C12.7241 11.5594 13.0933 10.6452 13.7636 9.90207C14.7447 8.81434 15.2851 7.41866 15.2851 5.97221C15.2851 2.20379 11.7356 -0.661928 7.81844 0.133335ZM9.13871 15.9935C8.4803 15.9935 7.90302 15.5532 7.68984 14.9615H10.5875C10.3744 15.5532 9.79712 15.9935 9.13871 15.9935ZM11.6997 13.4716C11.6997 13.746 11.4699 13.9693 11.1875 13.9693H7.08992C6.8075 13.9693 6.57773 13.746 6.57773 13.4716V12.9738H11.6997V13.4716ZM12.9932 9.24595C12.2789 10.0379 11.8394 10.9929 11.7279 11.9783H6.54966C6.43827 10.9924 5.9999 10.028 5.30919 9.27339C4.2152 8.07827 3.78772 6.47636 4.13639 4.87847C4.54338 3.01312 6.10729 1.49782 8.028 1.10782C11.3069 0.441937 14.2607 2.83483 14.2607 5.97221C14.2607 7.17715 13.8106 8.33979 12.9932 9.24595Z" fill="#BD93F9"/>
	<path d="M1.93356 5.97266H0.90917C0.6263 5.97266 0.396973 6.19551 0.396973 6.4704C0.396973 6.74529 0.6263 6.96814 0.90917 6.96814H1.93356C2.21643 6.96814 2.44576 6.74529 2.44576 6.4704C2.44576 6.19551 2.21643 5.97266 1.93356 5.97266Z" fill="#BD93F9" fill-opacity="0.32"/>
	<path d="M2.14608 3.48385L1.42174 2.77994C1.22174 2.58556 0.897416 2.58556 0.697386 2.77994C0.497356 2.97433 0.497356 3.28947 0.697386 3.48385L1.42174 4.18777C1.62173 4.38215 1.94605 4.38218 2.14608 4.18777C2.34611 3.99338 2.34611 3.67824 2.14608 3.48385Z" fill="#BD93F9" fill-opacity="0.32"/>
	<path d="M2.14608 8.75272C1.94605 8.55834 1.62173 8.55834 1.42174 8.75272L0.697386 9.45663C0.497356 9.65102 0.497356 9.96616 0.697386 10.1605C0.897382 10.3549 1.22171 10.355 1.42174 10.1605L2.14608 9.45663C2.34611 9.26225 2.34611 8.94711 2.14608 8.75272Z" fill="#BD93F9" fill-opacity="0.32"/>
	<path d="M17.3676 5.97266H16.3433C16.0604 5.97266 15.8311 6.19551 15.8311 6.4704C15.8311 6.74529 16.0604 6.96814 16.3433 6.96814H17.3676C17.6505 6.96814 17.8798 6.74529 17.8798 6.4704C17.8798 6.19551 17.6505 5.97266 17.3676 5.97266Z" fill="#BD93F9" fill-opacity="0.32"/>
	<path d="M17.5797 2.77994C17.3797 2.58556 17.0554 2.58556 16.8553 2.77994L16.131 3.48385C15.9309 3.67824 15.9309 3.99338 16.131 4.18776C16.331 4.38212 16.6553 4.38215 16.8553 4.18776L17.5797 3.48385C17.7797 3.28947 17.7797 2.97433 17.5797 2.77994Z" fill="#BD93F9" fill-opacity="0.32"/>
	<path d="M17.5797 9.45663L16.8553 8.75272C16.6553 8.55834 16.331 8.55834 16.131 8.75272C15.9309 8.94711 15.9309 9.26225 16.131 9.45663L16.8553 10.1605C17.0553 10.3549 17.3797 10.3549 17.5797 10.1605C17.7797 9.96616 17.7797 9.65102 17.5797 9.45663Z" fill="#BD93F9" fill-opacity="0.32"/>
</svg>